<svg width="10" height="10" viewBox="0 0 10 10" fill="none" xmlns="http://www.w3.org/2000/svg">
<g clip-path="url(#clip0)">
<path opacity="0.3" fill-rule="evenodd" clip-rule="evenodd" d="M8.33331 0.199951C8.64013 0.199951 8.88886 0.448682 8.88886 0.755507V5.75551C8.88886 6.06233 8.64013 6.31106 8.33331 6.31106H1.66664C1.35981 6.31106 1.11108 6.06233 1.11108 5.75551V0.755507C1.11108 0.448682 1.35981 0.199951 1.66664 0.199951H8.33331ZM4.16664 2.97773H2.49997C2.34656 2.97773 2.2222 3.10209 2.2222 3.25551C2.2222 3.40892 2.34656 3.53328 2.49997 3.53328H4.16664C4.32005 3.53328 4.44442 3.40892 4.44442 3.25551C4.44442 3.10209 4.32005 2.97773 4.16664 2.97773ZM5.83331 1.86662H2.49997C2.34656 1.86662 2.2222 1.99098 2.2222 2.1444C2.2222 2.29781 2.34656 2.42217 2.49997 2.42217H5.83331C5.98672 2.42217 6.11108 2.29781 6.11108 2.1444C6.11108 1.99098 5.98672 1.86662 5.83331 1.86662Z" fill="black"/>
<path fill-rule="evenodd" clip-rule="evenodd" d="M0.440414 2.74023L5 6.03327L9.55959 2.74023C9.68395 2.65041 9.85759 2.67842 9.94741 2.80278C9.9816 2.85012 10 2.90703 10 2.96542V8.53327C10 9.14692 9.50254 9.64438 8.88889 9.64438H1.11111C0.497461 9.64438 0 9.14692 0 8.53327V2.96542C0 2.81201 0.124365 2.68764 0.277778 2.68764C0.33617 2.68764 0.393077 2.70604 0.440414 2.74023Z" fill="black"/>
</g>
<defs>
<clipPath id="clip0">
<rect y="0.199951" width="10" height="9.44444" fill="white"/>
</clipPath>
</defs>
</svg>
