<svg width="10" height="10" viewBox="0 0 10 10" fill="none" xmlns="http://www.w3.org/2000/svg">
<g clip-path="url(#clip0)">
<path d="M4.98567 0C7.55709 0 9.27138 2.14286 9.27138 4.28571C9.27138 5.61861 8.02776 7.44895 5.54051 9.77674C5.22304 10.0739 4.73338 10.0862 4.40136 9.80542L4.27262 9.69583C1.89084 7.65428 0.699951 5.85091 0.699951 4.28571C0.699951 1.71429 2.41424 0 4.98567 0ZM4.98567 2.28571C4.19669 2.28571 3.55709 2.92531 3.55709 3.71429C3.55709 4.50326 4.19669 5.14286 4.98567 5.14286C5.77464 5.14286 6.41424 4.50326 6.41424 3.71429C6.41424 2.92531 5.77464 2.28571 4.98567 2.28571Z" fill="black"/>
</g>
<defs>
<clipPath id="clip0">
<rect x="0.699951" width="8.57143" height="10" fill="white"/>
</clipPath>
</defs>
</svg>
