<svg width="18" height="11" viewBox="0 0 18 11" fill="none" xmlns="http://www.w3.org/2000/svg">
<path d="M17.5647 5.3436L1.46958 5.3436L4.9319 1.60855C4.97195 1.56535 5.00372 1.51406 5.02539 1.45761C5.04706 1.40117 5.05822 1.34067 5.05822 1.27957C5.05822 1.21848 5.04706 1.15798 5.02539 1.10153C5.00372 1.04509 4.97195 0.993799 4.9319 0.950597C4.89185 0.907396 4.84431 0.873126 4.79199 0.849746C4.73966 0.826365 4.68358 0.814331 4.62695 0.814331C4.57031 0.814331 4.51423 0.826365 4.46191 0.849746C4.40958 0.873126 4.36204 0.907396 4.32199 0.950597L0.123398 5.47992C0.0874979 5.52005 0.0586598 5.56688 0.0382907 5.61814C0.0325094 5.63303 0.0274815 5.64826 0.0232291 5.66374C-0.00887868 5.76417 -0.0076682 5.87352 0.0266538 5.97309C0.0280728 5.97715 0.0279952 5.98141 0.029522 5.98542L0.029893 5.98704C0.0502866 6.03782 0.0790511 6.08419 0.114789 6.12389C0.118451 6.12812 0.119581 6.13377 0.123415 6.13789L4.32201 10.6672C4.36206 10.7104 4.4096 10.7447 4.46193 10.7681C4.51425 10.7914 4.57033 10.8035 4.62696 10.8035C4.6836 10.8035 4.73968 10.7914 4.792 10.7681C4.84433 10.7447 4.89187 10.7104 4.93192 10.6672C4.97197 10.624 5.00373 10.5727 5.02541 10.5163C5.04708 10.4598 5.05823 10.3993 5.05823 10.3382C5.05823 10.2771 5.04708 10.2166 5.02541 10.1602C5.00373 10.1038 4.97197 10.0525 4.93192 10.0093L1.46958 6.27419L17.5647 6.27419C17.6791 6.27419 17.7888 6.22517 17.8697 6.13791C17.9506 6.05065 17.9961 5.9323 17.9961 5.8089C17.9961 5.68549 17.9506 5.56714 17.8697 5.47988C17.7888 5.39262 17.6791 5.3436 17.5647 5.3436Z" fill="black"/>
</svg>
