<svg width="20" height="120" viewBox="0 0 20 120" fill="none" xmlns="http://www.w3.org/2000/svg">
<path d="M14.072 85.316C14.072 85.94 13.972 86.54 13.772 87.116C13.572 87.684 13.308 88.124 12.98 88.436L12.296 88.088C12.6 87.784 12.848 87.38 13.04 86.876C13.224 86.372 13.316 85.852 13.316 85.316C13.316 84.564 13.18 84 12.908 83.624C12.628 83.248 12.268 83.06 11.828 83.06C11.492 83.06 11.224 83.164 11.024 83.372C10.824 83.572 10.672 83.82 10.568 84.116C10.456 84.412 10.336 84.824 10.208 85.352C10.048 85.984 9.896 86.488 9.752 86.864C9.6 87.24 9.372 87.564 9.068 87.836C8.764 88.1 8.352 88.232 7.832 88.232C7.408 88.232 7.024 88.12 6.68 87.896C6.328 87.672 6.048 87.328 5.84 86.864C5.632 86.4 5.528 85.824 5.528 85.136C5.528 84.656 5.596 84.188 5.732 83.732C5.86 83.268 6.04 82.868 6.272 82.532L6.98 82.832C6.748 83.184 6.576 83.56 6.464 83.96C6.344 84.36 6.284 84.752 6.284 85.136C6.284 85.872 6.428 86.428 6.716 86.804C6.996 87.172 7.36 87.356 7.808 87.356C8.144 87.356 8.416 87.256 8.624 87.056C8.824 86.848 8.98 86.592 9.092 86.288C9.196 85.976 9.312 85.56 9.44 85.04C9.592 84.424 9.744 83.928 9.896 83.552C10.04 83.168 10.264 82.844 10.568 82.58C10.864 82.316 11.268 82.184 11.78 82.184C12.204 82.184 12.592 82.3 12.944 82.532C13.288 82.756 13.564 83.104 13.772 83.576C13.972 84.048 14.072 84.628 14.072 85.316ZM14.06 77.8132C14.06 78.4372 13.924 78.9972 13.652 79.4932C13.38 79.9812 13 80.3652 12.512 80.6452C12.016 80.9252 11.46 81.0652 10.844 81.0652C10.228 81.0652 9.676 80.9252 9.188 80.6452C8.7 80.3652 8.32 79.9812 8.048 79.4932C7.776 78.9972 7.64 78.4372 7.64 77.8132C7.64 77.2692 7.748 76.7852 7.964 76.3612C8.172 75.9292 8.48 75.5892 8.888 75.3412L9.32 75.9772C9.008 76.1852 8.776 76.4492 8.624 76.7692C8.464 77.0892 8.384 77.4372 8.384 77.8132C8.384 78.2692 8.488 78.6812 8.696 79.0492C8.896 79.4092 9.184 79.6932 9.56 79.9012C9.936 80.1012 10.364 80.2012 10.844 80.2012C11.332 80.2012 11.764 80.1012 12.14 79.9012C12.508 79.6932 12.796 79.4092 13.004 79.0492C13.204 78.6812 13.304 78.2692 13.304 77.8132C13.304 77.4372 13.228 77.0892 13.076 76.7692C12.924 76.4492 12.692 76.1852 12.38 75.9772L12.812 75.3412C13.22 75.5892 13.532 75.9292 13.748 76.3612C13.956 76.7932 14.06 77.2772 14.06 77.8132ZM8.924 72.8515C8.5 72.6515 8.18 72.3555 7.964 71.9635C7.748 71.5635 7.64 71.0715 7.64 70.4875L8.468 70.4875L8.456 70.6915C8.456 71.3555 8.66 71.8755 9.068 72.2515C9.476 72.6275 10.048 72.8155 10.784 72.8155L14 72.8155L14 73.6675L7.688 73.6675L7.688 72.8515L8.924 72.8515ZM14.06 66.4234C14.06 67.0314 13.924 67.5794 13.652 68.0674C13.372 68.5554 12.988 68.9394 12.5 69.2194C12.012 69.4994 11.46 69.6394 10.844 69.6394C10.228 69.6394 9.676 69.4994 9.188 69.2194C8.7 68.9394 8.32 68.5554 8.048 68.0674C7.776 67.5794 7.64 67.0314 7.64 66.4234C7.64 65.8154 7.776 65.2674 8.048 64.7794C8.32 64.2914 8.7 63.9114 9.188 63.6394C9.676 63.3594 10.228 63.2194 10.844 63.2194C11.46 63.2194 12.012 63.3594 12.5 63.6394C12.988 63.9114 13.372 64.2914 13.652 64.7794C13.924 65.2674 14.06 65.8154 14.06 66.4234ZM13.304 66.4234C13.304 65.9754 13.204 65.5754 13.004 65.2234C12.796 64.8634 12.504 64.5834 12.128 64.3834C11.752 64.1834 11.324 64.0834 10.844 64.0834C10.364 64.0834 9.936 64.1834 9.56 64.3834C9.184 64.5834 8.896 64.8634 8.696 65.2234C8.488 65.5754 8.384 65.9754 8.384 66.4234C8.384 66.8714 8.488 67.2754 8.696 67.6354C8.896 67.9874 9.184 68.2674 9.56 68.4754C9.936 68.6754 10.364 68.7754 10.844 68.7754C11.324 68.7754 11.752 68.6754 12.128 68.4754C12.504 68.2674 12.796 67.9874 13.004 67.6354C13.204 67.2754 13.304 66.8714 13.304 66.4234ZM5.096 61.48L5.096 60.628L14 60.628L14 61.48L5.096 61.48ZM5.096 58.2573L5.096 57.4053L14 57.4053L14 58.2573L5.096 58.2573ZM13.616 48.57C13.76 48.73 13.872 48.93 13.952 49.17C14.024 49.402 14.06 49.646 14.06 49.902C14.06 50.494 13.9 50.95 13.58 51.27C13.26 51.59 12.808 51.75 12.224 51.75L8.408 51.75L8.408 52.878L7.688 52.878L7.688 51.75L6.308 51.75L6.308 50.898L7.688 50.898L7.688 48.978L8.408 48.978L8.408 50.898L12.176 50.898C12.552 50.898 12.84 50.806 13.04 50.622C13.232 50.43 13.328 50.158 13.328 49.806C13.328 49.63 13.3 49.462 13.244 49.302C13.188 49.134 13.108 48.99 13.004 48.87L13.616 48.57ZM14.06 44.6617C14.06 45.2697 13.924 45.8177 13.652 46.3057C13.372 46.7937 12.988 47.1777 12.5 47.4577C12.012 47.7377 11.46 47.8777 10.844 47.8777C10.228 47.8777 9.676 47.7377 9.188 47.4577C8.7 47.1777 8.32 46.7937 8.048 46.3057C7.776 45.8177 7.64 45.2697 7.64 44.6617C7.64 44.0537 7.776 43.5057 8.048 43.0177C8.32 42.5297 8.7 42.1497 9.188 41.8777C9.676 41.5977 10.228 41.4577 10.844 41.4577C11.46 41.4577 12.012 41.5977 12.5 41.8777C12.988 42.1497 13.372 42.5297 13.652 43.0177C13.924 43.5057 14.06 44.0537 14.06 44.6617ZM13.304 44.6617C13.304 44.2137 13.204 43.8137 13.004 43.4617C12.796 43.1017 12.504 42.8217 12.128 42.6217C11.752 42.4217 11.324 42.3217 10.844 42.3217C10.364 42.3217 9.936 42.4217 9.56 42.6217C9.184 42.8217 8.896 43.1017 8.696 43.4617C8.488 43.8137 8.384 44.2137 8.384 44.6617C8.384 45.1097 8.488 45.5137 8.696 45.8737C8.896 46.2257 9.184 46.5057 9.56 46.7137C9.936 46.9137 10.364 47.0137 10.844 47.0137C11.324 47.0137 11.752 46.9137 12.128 46.7137C12.504 46.5057 12.796 46.2257 13.004 45.8737C13.204 45.5137 13.304 45.1097 13.304 44.6617ZM7.592 26.7856L14 29.1496L14 30.5896L9.584 32.2456L14 33.9256L14 35.3656L7.592 37.7176L7.592 36.3016L12.32 34.6096L7.592 32.8456L7.592 31.5856L12.344 29.8576L7.592 28.1176L7.592 26.7856ZM14.084 23.0501C14.084 23.6981 13.944 24.2821 13.664 24.8021C13.384 25.3221 12.996 25.7301 12.5 26.0261C11.996 26.3141 11.428 26.4581 10.796 26.4581C10.164 26.4581 9.6 26.3141 9.104 26.0261C8.608 25.7301 8.22 25.3221 7.94 24.8021C7.66 24.2821 7.52 23.6981 7.52 23.0501C7.52 22.3941 7.66 21.8061 7.94 21.2861C8.22 20.7661 8.608 20.3621 9.104 20.0741C9.6 19.7781 10.164 19.6301 10.796 19.6301C11.428 19.6301 11.996 19.7781 12.5 20.0741C12.996 20.3621 13.384 20.7661 13.664 21.2861C13.944 21.8061 14.084 22.3941 14.084 23.0501ZM12.8 23.0501C12.8 22.4981 12.616 22.0421 12.248 21.6821C11.88 21.3221 11.396 21.1421 10.796 21.1421C10.196 21.1421 9.712 21.3221 9.344 21.6821C8.976 22.0421 8.792 22.4981 8.792 23.0501C8.792 23.6021 8.976 24.0581 9.344 24.4181C9.712 24.7701 10.196 24.9461 10.796 24.9461C11.396 24.9461 11.88 24.7701 12.248 24.4181C12.616 24.0581 12.8 23.6021 12.8 23.0501ZM8.528 16.7677C7.856 16.3357 7.52 15.5757 7.52 14.4877L8.948 14.4877C8.924 14.6157 8.912 14.7317 8.912 14.8357C8.912 15.4197 9.084 15.8757 9.428 16.2037C9.764 16.5317 10.252 16.6957 10.892 16.6957L14 16.6957L14 18.1957L7.592 18.1957L7.592 16.7677L8.528 16.7677ZM11.252 10.5992L12.308 11.7152L14 11.7152L14 13.2152L5.096 13.2152L5.096 11.7152L10.472 11.7152L7.592 8.60722L7.592 6.80722L10.28 9.48322L14 6.55522L14 8.37922L11.252 10.5992ZM14.084 3.80553C14.084 4.32553 14.016 4.83353 13.88 5.32953C13.744 5.82553 13.572 6.22153 13.364 6.51753L12.224 5.94153C12.416 5.65353 12.572 5.30953 12.692 4.90953C12.804 4.50153 12.86 4.10153 12.86 3.70953C12.86 2.81353 12.624 2.36553 12.152 2.36553C11.928 2.36553 11.772 2.48153 11.684 2.71353C11.596 2.93753 11.512 3.30153 11.432 3.80553C11.352 4.33353 11.26 4.76553 11.156 5.10153C11.052 5.42953 10.872 5.71753 10.616 5.96553C10.352 6.20553 9.988 6.32553 9.524 6.32553C8.916 6.32553 8.432 6.07353 8.072 5.56953C7.704 5.05753 7.52 4.36953 7.52 3.50553C7.52 3.06553 7.572 2.62553 7.676 2.18553C7.772 1.74553 7.904 1.38553 8.072 1.10553L9.212 1.68153C8.892 2.22553 8.732 2.83753 8.732 3.51753C8.732 3.95753 8.8 4.29353 8.936 4.52553C9.064 4.74953 9.236 4.86153 9.452 4.86153C9.692 4.86153 9.864 4.74153 9.968 4.50153C10.064 4.25353 10.156 3.87353 10.244 3.36153C10.324 2.84953 10.416 2.42953 10.52 2.10153C10.624 1.77353 10.8 1.49353 11.048 1.26153C11.296 1.02153 11.648 0.90153 12.104 0.90153C12.704 0.90153 13.184 1.16153 13.544 1.68153C13.904 2.20153 14.084 2.90953 14.084 3.80553Z" fill="black"/>
<path d="M9.53419 102.205L9.53419 118.3L5.79508 114.838C5.75183 114.797 5.70049 114.766 5.64398 114.744C5.58747 114.722 5.52691 114.711 5.46575 114.711C5.40458 114.711 5.34402 114.722 5.28751 114.744C5.23101 114.766 5.17966 114.797 5.13641 114.838C5.09317 114.878 5.05886 114.925 5.03545 114.977C5.01205 115.03 5 115.086 5 115.142C5 115.199 5.01205 115.255 5.03545 115.308C5.05886 115.36 5.09317 115.407 5.13641 115.447L9.67066 119.646C9.71083 119.682 9.75771 119.711 9.80903 119.731C9.82394 119.737 9.83917 119.742 9.85467 119.746C9.95522 119.778 10.0647 119.777 10.1644 119.743C10.1684 119.741 10.1727 119.741 10.1767 119.74L10.1783 119.74C10.2292 119.719 10.2756 119.69 10.3153 119.655C10.3196 119.651 10.3252 119.65 10.3293 119.646L14.8636 115.447C14.9068 115.407 14.9411 115.36 14.9645 115.307C14.988 115.255 15 115.199 15 115.142C15 115.086 14.988 115.03 14.9645 114.977C14.9411 114.925 14.9068 114.878 14.8636 114.837C14.8203 114.797 14.769 114.766 14.7125 114.744C14.656 114.722 14.5954 114.711 14.5343 114.711C14.4731 114.711 14.4125 114.722 14.356 114.744C14.2995 114.766 14.2482 114.797 14.2049 114.837L10.4658 118.3L10.4658 102.205C10.4658 102.09 10.4167 101.981 10.3294 101.9C10.242 101.819 10.1235 101.773 9.99999 101.773C9.87645 101.773 9.75797 101.819 9.67062 101.9C9.58327 101.981 9.53419 102.09 9.53419 102.205Z" fill="black"/>
</svg>
