<svg width="10" height="10" viewBox="0 0 10 10" fill="none" xmlns="http://www.w3.org/2000/svg">
<g clip-path="url(#clip0)">
<path opacity="0.3" d="M3.66271 1.04473C3.71288 0.994559 3.77864 0.962953 3.84917 0.955117C4.0207 0.936058 4.17521 1.05966 4.19427 1.2312L4.52127 4.17422C4.52382 4.19715 4.52382 4.2203 4.52127 4.24324C4.50221 4.41477 4.3477 4.53837 4.17617 4.51932L1.23315 4.19231C1.16262 4.18448 1.09686 4.15287 1.04669 4.1027C0.924649 3.98066 0.924649 3.78279 1.04669 3.66075L1.91276 2.79469L0.974342 1.85627C0.852303 1.73423 0.852303 1.53637 0.974342 1.41433L1.41628 0.972388C1.53832 0.85035 1.73619 0.85035 1.85823 0.972388L2.79664 1.9108L3.66271 1.04473Z" fill="black"/>
<path fill-rule="evenodd" clip-rule="evenodd" d="M5.05008 6.52742L6.4276 5.1499C6.80805 4.76945 6.90237 4.18824 6.66175 3.707L6.5837 3.5509C6.34308 3.06967 6.4374 2.48845 6.81785 2.108L8.52585 0.400001C8.64789 0.277962 8.84575 0.277962 8.96779 0.400001C8.99154 0.423751 9.01131 0.451175 9.02633 0.481217L9.71632 1.86119C10.2442 2.91688 10.0373 4.1919 9.20266 5.0265L5.45339 8.77576C4.54493 9.68422 3.20116 10.0014 1.98233 9.59517L0.473285 9.09215C0.309553 9.03757 0.221065 8.8606 0.275643 8.69687C0.290984 8.65084 0.316831 8.60902 0.351135 8.57471L2.00818 6.91767C2.38863 6.53722 2.96985 6.4429 3.45108 6.68352L3.60718 6.76157C4.08842 7.00219 4.66963 6.90787 5.05008 6.52742Z" fill="black"/>
</g>
<defs>
<clipPath id="clip0">
<rect y="0.0999756" width="10" height="9.6875" fill="white"/>
</clipPath>
</defs>
</svg>
